<?xml version="1.0" encoding="UTF-8"?>
<!-- Generated by Pixelmator Pro 3.2.3 -->
<svg width="512" height="390" viewBox="0 0 512 390" xmlns="http://www.w3.org/2000/svg" xmlns:xlink="http://www.w3.org/1999/xlink">
    <g id="Group-copy">
        <linearGradient id="linearGradient1" x1="269.747304" y1="389.033324" x2="242.252217" y2="124.287965" gradientUnits="userSpaceOnUse">
            <stop offset="0" stop-color="#3478f6" stop-opacity="1"/>
            <stop offset="1" stop-color="#53b6f9" stop-opacity="1"/>
        </linearGradient>
        <path id="Path-copy-2" fill="url(#linearGradient1)" stroke="none" d="M 199.390625 137.910156 L 14.929688 233.640625 C -5.125 244.046875 -4.933594 272.804688 15.253906 282.941406 L 200.84375 376.152344 C 235.550781 393.582031 276.449219 393.582031 311.15625 376.152344 L 496.742188 282.941406 C 516.933594 272.800781 517.125 244.046875 497.070313 233.640625 L 312.605469 137.910156 C 277.117188 119.492188 234.882813 119.492188 199.390625 137.910156 Z"/>
        <path id="Path-copy-3" fill="none" stroke="#ffffff" stroke-width="5" stroke-opacity="0.599128" stroke-linecap="round" stroke-linejoin="round" stroke-dasharray="10 10" stroke-dashoffset="10" d="M 208.124573 155.682373 L 52.121838 236.643753 C 35.16114 245.444565 35.323013 269.765686 52.396034 278.338531 L 209.353516 357.169098 C 238.706024 371.90979 273.294739 371.90979 302.647247 357.169098 L 459.60141 278.338531 C 476.677734 269.76239 476.83963 245.444565 459.878937 236.643753 L 303.872894 155.682373 C 273.85965 140.105881 238.141098 140.105881 208.124573 155.682373 Z"/>
        <g id="Group-copy-2">
            <path id="Shape" fill="#000000" fill-rule="evenodd" stroke="none" d="M 385.192749 276.320251 C 385.399231 279.797791 383.838806 282.834412 379.867676 286.600952 C 376.731262 289.575806 322.106812 334.360596 321.532837 335.599854 C 320.95636 336.844788 315.313904 340.152832 308.960266 342.961853 C 298.449615 347.608521 296.640442 347.794342 290.571625 344.863434 C 286.922546 343.101166 278.791718 336.686096 272.642883 330.758789 C 266.677155 325.008179 256.88205 315.170593 250.902374 308.937683 C 245.11792 302.908386 161.278961 219.453674 157.68988 215.748108 C 152.89267 210.795105 151.515656 208.3974 151.865692 205.722778 C 152.120728 203.773804 153.242188 201.513611 154.416748 200.560242 C 155.563538 199.629395 207.893097 170.003967 209.822388 169.113525 C 211.745026 168.226196 214.687195 167.075684 216.364685 166.554871 C 218.040009 166.034668 221.183716 165.67804 223.359711 165.762085 C 226.390976 165.879089 363.81311 254.89856 368.029968 257.32782 C 372.31488 259.796265 377.862793 263.968628 380.328125 266.598267 C 382.830322 269.267151 385.034058 273.644958 385.192749 276.320251 Z"/>
            <path id="path1" fill="#ffffff" fill-opacity="0.479306" fill-rule="evenodd" stroke="none" opacity="0.535598" d="M 278.220398 232.180298 C 279.540985 231.22052 279.445129 230.933105 277.788025 230.865173 L 271.464386 230.054565 L 254.830017 227.289368 C 241.588562 225.088135 238.72406 224.880188 238.643677 226.098999 C 238.589478 226.920532 240.166504 233.359802 242.22522 240.678345 L 246.202362 254.816772 L 260.266571 244.950684 L 273.825134 235.439209 Z M 266.490662 265.721436 C 252.027863 276.787292 252.027863 276.787292 255.23407 287.419312 C 257.074158 293.521118 259.042572 298.825195 259.556732 299.033203 C 260.071655 299.241516 260.362518 300.368103 260.201569 301.542053 C 260.039795 302.722229 260.39035 305.991577 260.988464 308.83606 C 261.760193 312.50592 261.176178 315.40625 259.022278 318.444397 C 256.061768 322.620178 255.480469 322.85907 248.020905 322.950195 C 241.316437 323.032104 239.825897 322.545166 237.631165 319.583435 C 236.239136 317.704956 233.98111 310.989197 232.63797 304.812683 L 230.294312 294.035217 L 230.294312 294.035217 C 213.073761 306.406555 212.11792 306.813477 206.921875 306.5448 C 203.113983 306.3479 200.513885 305.340393 198.572235 303.323914 C 196.654297 301.332092 195.982178 298.972412 196.397797 295.778809 C 196.990936 291.220642 196.990936 291.220642 211.297455 280.488525 C 225.067535 270.158875 225.067535 270.158875 222.531982 258.134094 C 221.204681 251.839111 218.787689 240.628235 217.183655 233.31665 L 214.432526 220.776672 L 203.137604 218.871826 C 193.178711 217.192261 192.004242 216.804565 191.011993 214.899231 C 190.413208 213.749329 189.622253 212.52948 189.251007 212.181213 C 188.880707 211.833862 189.454407 210.606018 190.519562 209.457703 C 191.578674 208.315979 193.552429 206.701843 194.90683 205.867493 C 196.382751 204.958374 198.787811 204.303528 200.950684 204.221252 C 202.932465 204.145874 205.71991 204.345215 207.146271 204.665405 C 208.577972 204.986877 210.010986 205.089172 210.325714 204.891785 C 210.640167 204.69458 210.72467 202.686462 210.516418 200.457764 C 210.185852 196.920715 210.467468 196.292358 213.037842 194.763489 C 214.620087 193.822388 217.33075 192.615234 219.065216 192.078125 C 220.797638 191.541687 222.515106 191.289551 222.884338 191.517639 C 223.254242 191.746155 224.7948 192.387329 226.314545 192.944763 C 228.739014 193.833984 229.345551 194.825378 231.052429 200.772827 C 232.825378 206.950684 233.443268 207.983887 235.786652 208.603271 C 237.275299 208.996704 244.412567 210.188049 251.739929 211.263611 C 264.043488 213.069641 276.741333 214.765747 283.926636 215.813477 C 297.254913 217.756897 297.254913 217.756897 306.641357 211.233521 C 312.489075 207.169373 317.447266 204.315002 320.346863 203.333191 C 323.511841 202.261475 325.979797 202.029541 328.490479 202.569763 C 330.484192 202.998779 332.95459 204.070496 333.977417 204.954346 C 335.006653 205.84375 335.969116 207.546875 336.111511 208.741516 C 336.254761 209.944336 335.580444 211.882568 334.607422 213.046631 C 333.62915 214.21698 330.90625 216.640991 328.545898 218.439331 C 326.168213 220.250854 324.6745 221.853088 325.24292 221.987976 C 325.812134 222.123108 330.707397 222.932373 336.172607 223.794434 C 341.695801 224.665649 348.082397 226.184082 350.326721 227.166992 C 353.514648 228.563293 354.678711 229.681396 355.465088 232.129517 C 356.0802 234.044617 355.591187 236.432678 354.23407 238.067261 L 354.23407 238.067261 C 352.283813 240.416199 351.09082 240.840698 346.17041 240.931274 C 343.007813 240.989502 332.517822 239.762085 323.006958 238.229004 C 306.139893 235.510193 306.139893 235.510193 295.412079 243.683594 Z"/>
            <path id="Shape-copy-2" fill="none" stroke="#ffffff" stroke-linecap="round" stroke-linejoin="round" d="M 245.25 225.28125 L 279.4375 230.65625 L 279.65625 231.203125 L 278.5625 232.53125 L 274.109375 235.84375 L 245.90625 255.640625 L 239.671875 233.140625 L 238.078125 225.703125 L 239.921875 224.84375 Z M 226.984375 192.65625 L 228.953125 194.046875 L 230.140625 196.28125 L 233.40625 206.109375 L 234.1875 207.234375 L 235.53125 207.984375 L 249.0625 210.34375 L 291.0625 216.25 L 295.078125 216.40625 L 298.109375 215.796875 L 301.296875 214.203125 L 311.5625 207.359375 L 318.296875 203.609375 L 323.03125 202.0625 L 327.125 201.84375 L 331 202.796875 L 334.09375 204.390625 L 335.96875 206.765625 L 336.625 209.484375 L 335.859375 211.984375 L 334.546875 213.859375 L 326.96875 220.375 L 326.03125 221.546875 L 341.5625 224.265625 L 350.03125 226.5 L 353.046875 228.015625 L 354.484375 229.21875 L 356.0625 232.375 L 356 235.703125 L 354.890625 238.046875 L 352.765625 240.1875 L 349.921875 241.203125 L 345.515625 241.421875 L 341.28125 241.140625 L 313.984375 237.375 L 308.984375 237.109375 L 306.359375 237.5 L 304 238.375 L 295.6875 244.078125 L 266.796875 266.109375 L 256.59375 274.453125 L 254.796875 276.71875 L 254.109375 278.609375 L 254.1875 281.65625 L 255.6875 287.25 L 258.609375 295.96875 L 260.671875 299.96875 L 260.703125 303.515625 L 261.78125 310.796875 L 261.453125 314.5625 L 260.5 316.96875 L 257.90625 320.734375 L 256.21875 322.28125 L 252.96875 323.25 L 244.703125 323.421875 L 240.671875 322.78125 L 238.265625 321.15625 L 236.3125 318.296875 L 234.28125 312.921875 L 229.96875 294.859375 L 218.515625 302.921875 L 211.765625 306.609375 L 209.15625 307.078125 L 204.8125 306.84375 L 202.390625 306.265625 L 199.4375 304.75 L 197.1875 302.4375 L 195.984375 299.640625 L 195.890625 295.703125 L 196.9375 291.796875 L 201.25 287.515625 L 216.46875 275.921875 L 220.671875 272.265625 L 222.90625 268.90625 L 223.3125 266.890625 L 223.21875 264.546875 L 214.015625 221.203125 L 198.265625 218.515625 L 192.65625 217.125 L 191.140625 216.046875 L 188.625 212.140625 L 189.703125 209.59375 L 194.109375 205.78125 L 197.9375 204.140625 L 201.703125 203.6875 L 209.875 204.359375 L 210.125 202.71875 L 209.921875 197.765625 L 210.84375 195.6875 L 216.625 192.4375 L 221.984375 190.90625 Z"/>
            <path id="Shape-copy" fill="none" stroke="#000000" stroke-width="3" stroke-linecap="round" stroke-linejoin="round" d="M 385.192749 276.320251 C 385.399231 279.797791 383.838806 282.834412 379.867676 286.600952 C 376.731262 289.575806 322.106812 334.360596 321.532837 335.599854 C 320.95636 336.844788 315.313904 340.152832 308.960266 342.961853 C 298.449615 347.608521 296.640442 347.794342 290.571625 344.863434 C 286.922546 343.101166 278.791718 336.686096 272.642883 330.758789 C 266.677155 325.008179 256.88205 315.170593 250.902374 308.937683 C 245.11792 302.908386 161.278961 219.453674 157.68988 215.748108 C 152.89267 210.795105 151.515656 208.3974 151.865692 205.722778 C 152.120728 203.773804 153.242188 201.513611 154.416748 200.560242 C 155.563538 199.629395 207.893097 170.003967 209.822388 169.113525 C 211.745026 168.226196 214.687195 167.075684 216.364685 166.554871 C 218.040009 166.034668 221.183716 165.67804 223.359711 165.762085 C 226.390976 165.879089 363.81311 254.89856 368.029968 257.32782 C 372.31488 259.796265 377.862793 263.968628 380.328125 266.598267 C 382.830322 269.267151 385.034058 273.644958 385.192749 276.320251 Z"/>
        </g>
    </g>
    <g id="g1" opacity="0.750442">
        <linearGradient id="linearGradient2" x1="269.747304" y1="332.033324" x2="242.252217" y2="67.287965" gradientUnits="userSpaceOnUse">
            <stop offset="0" stop-color="#3478f6" stop-opacity="1"/>
            <stop offset="1" stop-color="#53b6f9" stop-opacity="1"/>
        </linearGradient>
        <path id="path2" fill="url(#linearGradient2)" stroke="none" d="M 199.390625 80.910156 L 14.929688 176.640625 C -5.125 187.046875 -4.933594 215.804688 15.253906 225.941406 L 200.84375 319.152344 C 235.550781 336.582031 276.449219 336.582031 311.15625 319.152344 L 496.742188 225.941406 C 516.933594 215.800781 517.125 187.046875 497.070313 176.640625 L 312.605469 80.910156 C 277.117188 62.492188 234.882813 62.492188 199.390625 80.910156 Z"/>
        <path id="path3" fill="none" stroke="#ffffff" stroke-width="5" stroke-opacity="0.599128" stroke-linecap="round" stroke-linejoin="round" stroke-dasharray="10 10" stroke-dashoffset="10" d="M 208.124573 98.682373 L 52.121838 179.643753 C 35.16114 188.444565 35.323013 212.765686 52.396034 221.338531 L 209.353516 300.169098 C 238.706024 314.90979 273.294739 314.90979 302.647247 300.169098 L 459.60141 221.338531 C 476.677734 212.762375 476.83963 188.444565 459.878937 179.643753 L 303.872894 98.682373 C 273.85965 83.105865 238.141098 83.105865 208.124573 98.682373 Z"/>
        <g id="g2">
            <path id="path4" fill="#000000" fill-rule="evenodd" stroke="none" d="M 385.192749 219.320251 C 385.399231 222.797791 383.838806 225.834412 379.867676 229.600952 C 376.731262 232.575806 322.106812 277.360596 321.532837 278.599854 C 320.95636 279.844788 315.313904 283.152832 308.960266 285.961853 C 298.449615 290.608521 296.640442 290.794342 290.571625 287.863434 C 286.922546 286.101166 278.791718 279.686096 272.642883 273.758789 C 266.677155 268.008179 256.88205 258.170593 250.902374 251.937683 C 245.11792 245.908386 161.278961 162.453674 157.68988 158.748108 C 152.89267 153.795105 151.515656 151.3974 151.865692 148.722778 C 152.120728 146.773804 153.242188 144.513611 154.416748 143.560242 C 155.563538 142.629395 207.893097 113.003967 209.822388 112.113525 C 211.745026 111.226196 214.687195 110.075684 216.364685 109.554871 C 218.040009 109.034668 221.183716 108.67804 223.359711 108.762085 C 226.390976 108.879089 363.81311 197.89856 368.029968 200.32782 C 372.31488 202.796265 377.862793 206.968628 380.328125 209.598267 C 382.830322 212.267151 385.034058 216.644958 385.192749 219.320251 Z"/>
            <path id="path5" fill="#ffffff" fill-opacity="0.479306" fill-rule="evenodd" stroke="none" opacity="0.535598" d="M 278.220398 175.180298 C 279.540985 174.22052 279.445129 173.933105 277.788025 173.865173 L 271.464386 173.054565 L 254.830017 170.289368 C 241.588562 168.088135 238.72406 167.880188 238.643677 169.098999 C 238.589478 169.920532 240.166504 176.359802 242.22522 183.678345 L 246.202362 197.816772 L 260.266571 187.950684 L 273.825134 178.439209 Z M 266.490662 208.721436 C 252.027863 219.787292 252.027863 219.787292 255.23407 230.419312 C 257.074158 236.521118 259.042572 241.825195 259.556732 242.033203 C 260.071655 242.241516 260.362518 243.368103 260.201569 244.542053 C 260.039795 245.722229 260.39035 248.991577 260.988464 251.83606 C 261.760193 255.50592 261.176178 258.40625 259.022278 261.444397 C 256.061768 265.620178 255.480469 265.85907 248.020905 265.950195 C 241.316437 266.032104 239.825897 265.545166 237.631165 262.583435 C 236.239136 260.704956 233.98111 253.989197 232.63797 247.812683 L 230.294312 237.035217 L 230.294312 237.035217 C 213.073761 249.406555 212.11792 249.813477 206.921875 249.5448 C 203.113983 249.3479 200.513885 248.340393 198.572235 246.323914 C 196.654297 244.332092 195.982178 241.972412 196.397797 238.778809 C 196.990936 234.220642 196.990936 234.220642 211.297455 223.488525 C 225.067535 213.158875 225.067535 213.158875 222.531982 201.134094 C 221.204681 194.839111 218.787689 183.628235 217.183655 176.31665 L 214.432526 163.776672 L 203.137604 161.871826 C 193.178711 160.192261 192.004242 159.804565 191.011993 157.899231 C 190.413208 156.749329 189.622253 155.52948 189.251007 155.181213 C 188.880707 154.833862 189.454407 153.606018 190.519562 152.457703 C 191.578674 151.315979 193.552429 149.701843 194.90683 148.867493 C 196.382751 147.958374 198.787811 147.303528 200.950684 147.221252 C 202.932465 147.145874 205.71991 147.345215 207.146271 147.665405 C 208.577972 147.986877 210.010986 148.089172 210.325714 147.891785 C 210.640167 147.69458 210.72467 145.686462 210.516418 143.457764 C 210.185852 139.920715 210.467468 139.292358 213.037842 137.763489 C 214.620087 136.822388 217.33075 135.615234 219.065216 135.078125 C 220.797638 134.541687 222.515106 134.289551 222.884338 134.517639 C 223.254242 134.746155 224.7948 135.387329 226.314545 135.944763 C 228.739014 136.833984 229.345551 137.825378 231.052429 143.772827 C 232.825378 149.950684 233.443268 150.983887 235.786652 151.603271 C 237.275299 151.996704 244.412567 153.188049 251.739929 154.263611 C 264.043488 156.069641 276.741333 157.765747 283.926636 158.813477 C 297.254913 160.756897 297.254913 160.756897 306.641357 154.233521 C 312.489075 150.169373 317.447266 147.315002 320.346863 146.333191 C 323.511841 145.261475 325.979797 145.029541 328.490479 145.569763 C 330.484192 145.998779 332.95459 147.070496 333.977417 147.954346 C 335.006653 148.84375 335.969116 150.546875 336.111511 151.741516 C 336.254761 152.944336 335.580444 154.882568 334.607422 156.046631 C 333.62915 157.21698 330.90625 159.640991 328.545898 161.439331 C 326.168213 163.250854 324.6745 164.853088 325.24292 164.987976 C 325.812134 165.123108 330.707397 165.932373 336.172607 166.794434 C 341.695801 167.665649 348.082397 169.184082 350.326721 170.166992 C 353.514648 171.563293 354.678711 172.681396 355.465088 175.129517 C 356.0802 177.044617 355.591187 179.432678 354.23407 181.067261 L 354.23407 181.067261 C 352.283813 183.416199 351.09082 183.840698 346.17041 183.931274 C 343.007813 183.989502 332.517822 182.762085 323.006958 181.229004 C 306.139893 178.510193 306.139893 178.510193 295.412079 186.683594 Z"/>
            <path id="path6" fill="none" stroke="#ffffff" stroke-linecap="round" stroke-linejoin="round" d="M 245.25 168.28125 L 279.4375 173.65625 L 279.65625 174.203125 L 278.5625 175.53125 L 274.109375 178.84375 L 245.90625 198.640625 L 239.671875 176.140625 L 238.078125 168.703125 L 239.921875 167.84375 Z M 226.984375 135.65625 L 228.953125 137.046875 L 230.140625 139.28125 L 233.40625 149.109375 L 234.1875 150.234375 L 235.53125 150.984375 L 249.0625 153.34375 L 291.0625 159.25 L 295.078125 159.40625 L 298.109375 158.796875 L 301.296875 157.203125 L 311.5625 150.359375 L 318.296875 146.609375 L 323.03125 145.0625 L 327.125 144.84375 L 331 145.796875 L 334.09375 147.390625 L 335.96875 149.765625 L 336.625 152.484375 L 335.859375 154.984375 L 334.546875 156.859375 L 326.96875 163.375 L 326.03125 164.546875 L 341.5625 167.265625 L 350.03125 169.5 L 353.046875 171.015625 L 354.484375 172.21875 L 356.0625 175.375 L 356 178.703125 L 354.890625 181.046875 L 352.765625 183.1875 L 349.921875 184.203125 L 345.515625 184.421875 L 341.28125 184.140625 L 313.984375 180.375 L 308.984375 180.109375 L 306.359375 180.5 L 304 181.375 L 295.6875 187.078125 L 266.796875 209.109375 L 256.59375 217.453125 L 254.796875 219.71875 L 254.109375 221.609375 L 254.1875 224.65625 L 255.6875 230.25 L 258.609375 238.96875 L 260.671875 242.96875 L 260.703125 246.515625 L 261.78125 253.796875 L 261.453125 257.5625 L 260.5 259.96875 L 257.90625 263.734375 L 256.21875 265.28125 L 252.96875 266.25 L 244.703125 266.421875 L 240.671875 265.78125 L 238.265625 264.15625 L 236.3125 261.296875 L 234.28125 255.921875 L 229.96875 237.859375 L 218.515625 245.921875 L 211.765625 249.609375 L 209.15625 250.078125 L 204.8125 249.84375 L 202.390625 249.265625 L 199.4375 247.75 L 197.1875 245.4375 L 195.984375 242.640625 L 195.890625 238.703125 L 196.9375 234.796875 L 201.25 230.515625 L 216.46875 218.921875 L 220.671875 215.265625 L 222.90625 211.90625 L 223.3125 209.890625 L 223.21875 207.546875 L 214.015625 164.203125 L 198.265625 161.515625 L 192.65625 160.125 L 191.140625 159.046875 L 188.625 155.140625 L 189.703125 152.59375 L 194.109375 148.78125 L 197.9375 147.140625 L 201.703125 146.6875 L 209.875 147.359375 L 210.125 145.71875 L 209.921875 140.765625 L 210.84375 138.6875 L 216.625 135.4375 L 221.984375 133.90625 Z"/>
            <path id="path7" fill="none" stroke="#000000" stroke-width="3" stroke-linecap="round" stroke-linejoin="round" d="M 385.192749 219.320251 C 385.399231 222.797791 383.838806 225.834412 379.867676 229.600952 C 376.731262 232.575806 322.106812 277.360596 321.532837 278.599854 C 320.95636 279.844788 315.313904 283.152832 308.960266 285.961853 C 298.449615 290.608521 296.640442 290.794342 290.571625 287.863434 C 286.922546 286.101166 278.791718 279.686096 272.642883 273.758789 C 266.677155 268.008179 256.88205 258.170593 250.902374 251.937683 C 245.11792 245.908386 161.278961 162.453674 157.68988 158.748108 C 152.89267 153.795105 151.515656 151.3974 151.865692 148.722778 C 152.120728 146.773804 153.242188 144.513611 154.416748 143.560242 C 155.563538 142.629395 207.893097 113.003967 209.822388 112.113525 C 211.745026 111.226196 214.687195 110.075684 216.364685 109.554871 C 218.040009 109.034668 221.183716 108.67804 223.359711 108.762085 C 226.390976 108.879089 363.81311 197.89856 368.029968 200.32782 C 372.31488 202.796265 377.862793 206.968628 380.328125 209.598267 C 382.830322 212.267151 385.034058 216.644958 385.192749 219.320251 Z"/>
        </g>
    </g>
    <g id="Group" opacity="0.750442">
        <linearGradient id="linearGradient3" x1="269.747304" y1="265.033324" x2="242.252217" y2="0.287965" gradientUnits="userSpaceOnUse">
            <stop offset="0" stop-color="#3478f6" stop-opacity="1"/>
            <stop offset="1" stop-color="#53b6f9" stop-opacity="1"/>
        </linearGradient>
        <path id="path8" fill="url(#linearGradient3)" stroke="none" d="M 199.390625 13.910156 L 14.929688 109.640625 C -5.125 120.046875 -4.933594 148.804688 15.253906 158.941406 L 200.84375 252.152344 C 235.550781 269.582031 276.449219 269.582031 311.15625 252.152344 L 496.742188 158.941406 C 516.933594 148.800781 517.125 120.046875 497.070313 109.640625 L 312.605469 13.910156 C 277.117188 -4.507813 234.882813 -4.507813 199.390625 13.910156 Z"/>
        <path id="path9" fill="none" stroke="#ffffff" stroke-width="5" stroke-opacity="0.599128" stroke-linecap="round" stroke-linejoin="round" stroke-dasharray="10 10" stroke-dashoffset="10" d="M 208.124573 31.682373 L 52.121838 112.643768 C 35.16114 121.44455 35.323013 145.765686 52.396034 154.338531 L 209.353516 233.169098 C 238.706024 247.909775 273.294739 247.909775 302.647247 233.169098 L 459.60141 154.338531 C 476.677734 145.762375 476.83963 121.44455 459.878937 112.643768 L 303.872894 31.682373 C 273.85965 16.105865 238.141098 16.105865 208.124573 31.682373 Z"/>
        <g id="g3">
            <path id="path10" fill="#000000" fill-rule="evenodd" stroke="none" d="M 385.192749 152.320251 C 385.399231 155.797791 383.838806 158.834412 379.867676 162.600952 C 376.731262 165.575806 322.106812 210.360596 321.532837 211.599854 C 320.95636 212.844788 315.313904 216.152832 308.960266 218.961853 C 298.449615 223.608521 296.640442 223.794342 290.571625 220.863434 C 286.922546 219.101166 278.791718 212.686096 272.642883 206.758789 C 266.677155 201.008179 256.88205 191.170593 250.902374 184.937683 C 245.11792 178.908386 161.278961 95.453674 157.68988 91.748108 C 152.89267 86.795105 151.515656 84.3974 151.865692 81.722778 C 152.120728 79.773804 153.242188 77.513611 154.416748 76.560242 C 155.563538 75.629395 207.893097 46.003967 209.822388 45.113525 C 211.745026 44.226196 214.687195 43.075684 216.364685 42.554871 C 218.040009 42.034668 221.183716 41.67804 223.359711 41.762085 C 226.390976 41.879089 363.81311 130.89856 368.029968 133.32782 C 372.31488 135.796265 377.862793 139.968628 380.328125 142.598267 C 382.830322 145.267151 385.034058 149.644958 385.192749 152.320251 Z"/>
            <path id="path11" fill="#ffffff" fill-opacity="0.479306" fill-rule="evenodd" stroke="none" opacity="0.535598" d="M 278.220398 108.180298 C 279.540985 107.22052 279.445129 106.933105 277.788025 106.865173 L 271.464386 106.054565 L 254.830017 103.289368 C 241.588562 101.088135 238.72406 100.880188 238.643677 102.098999 C 238.589478 102.920532 240.166504 109.359802 242.22522 116.678345 L 246.202362 130.816772 L 260.266571 120.950684 L 273.825134 111.439209 Z M 266.490662 141.721436 C 252.027863 152.787292 252.027863 152.787292 255.23407 163.419312 C 257.074158 169.521118 259.042572 174.825195 259.556732 175.033203 C 260.071655 175.241516 260.362518 176.368103 260.201569 177.542053 C 260.039795 178.722229 260.39035 181.991577 260.988464 184.83606 C 261.760193 188.50592 261.176178 191.40625 259.022278 194.444397 C 256.061768 198.620178 255.480469 198.85907 248.020905 198.950195 C 241.316437 199.032104 239.825897 198.545166 237.631165 195.583435 C 236.239136 193.704956 233.98111 186.989197 232.63797 180.812683 L 230.294312 170.035217 L 230.294312 170.035217 C 213.073761 182.406555 212.11792 182.813477 206.921875 182.5448 C 203.113983 182.3479 200.513885 181.340393 198.572235 179.323914 C 196.654297 177.332092 195.982178 174.972412 196.397797 171.778809 C 196.990936 167.220642 196.990936 167.220642 211.297455 156.488525 C 225.067535 146.158875 225.067535 146.158875 222.531982 134.134094 C 221.204681 127.839111 218.787689 116.628235 217.183655 109.31665 L 214.432526 96.776672 L 203.137604 94.871826 C 193.178711 93.192261 192.004242 92.804565 191.011993 90.899231 C 190.413208 89.749329 189.622253 88.52948 189.251007 88.181213 C 188.880707 87.833862 189.454407 86.606018 190.519562 85.457703 C 191.578674 84.315979 193.552429 82.701843 194.90683 81.867493 C 196.382751 80.958374 198.787811 80.303528 200.950684 80.221252 C 202.932465 80.145874 205.71991 80.345215 207.146271 80.665405 C 208.577972 80.986877 210.010986 81.089172 210.325714 80.891785 C 210.640167 80.69458 210.72467 78.686462 210.516418 76.457764 C 210.185852 72.920715 210.467468 72.292358 213.037842 70.763489 C 214.620087 69.822388 217.33075 68.615234 219.065216 68.078125 C 220.797638 67.541687 222.515106 67.289551 222.884338 67.517639 C 223.254242 67.746155 224.7948 68.387329 226.314545 68.944763 C 228.739014 69.833984 229.345551 70.825378 231.052429 76.772827 C 232.825378 82.950684 233.443268 83.983887 235.786652 84.603271 C 237.275299 84.996704 244.412567 86.188049 251.739929 87.263611 C 264.043488 89.069641 276.741333 90.765747 283.926636 91.813477 C 297.254913 93.756897 297.254913 93.756897 306.641357 87.233521 C 312.489075 83.169373 317.447266 80.315002 320.346863 79.333191 C 323.511841 78.261475 325.979797 78.029541 328.490479 78.569763 C 330.484192 78.998779 332.95459 80.070496 333.977417 80.954346 C 335.006653 81.84375 335.969116 83.546875 336.111511 84.741516 C 336.254761 85.944336 335.580444 87.882568 334.607422 89.046631 C 333.62915 90.21698 330.90625 92.640991 328.545898 94.439331 C 326.168213 96.250854 324.6745 97.853088 325.24292 97.987976 C 325.812134 98.123108 330.707397 98.932373 336.172607 99.794434 C 341.695801 100.665649 348.082397 102.184082 350.326721 103.166992 C 353.514648 104.563293 354.678711 105.681396 355.465088 108.129517 C 356.0802 110.044617 355.591187 112.432678 354.23407 114.067261 L 354.23407 114.067261 C 352.283813 116.416199 351.09082 116.840698 346.17041 116.931274 C 343.007813 116.989502 332.517822 115.762085 323.006958 114.229004 C 306.139893 111.510193 306.139893 111.510193 295.412079 119.683594 Z"/>
            <path id="path12" fill="none" stroke="#ffffff" stroke-linecap="round" stroke-linejoin="round" d="M 245.25 101.28125 L 279.4375 106.65625 L 279.65625 107.203125 L 278.5625 108.53125 L 274.109375 111.84375 L 245.90625 131.640625 L 239.671875 109.140625 L 238.078125 101.703125 L 239.921875 100.84375 Z M 226.984375 68.65625 L 228.953125 70.046875 L 230.140625 72.28125 L 233.40625 82.109375 L 234.1875 83.234375 L 235.53125 83.984375 L 249.0625 86.34375 L 291.0625 92.25 L 295.078125 92.40625 L 298.109375 91.796875 L 301.296875 90.203125 L 311.5625 83.359375 L 318.296875 79.609375 L 323.03125 78.0625 L 327.125 77.84375 L 331 78.796875 L 334.09375 80.390625 L 335.96875 82.765625 L 336.625 85.484375 L 335.859375 87.984375 L 334.546875 89.859375 L 326.96875 96.375 L 326.03125 97.546875 L 341.5625 100.265625 L 350.03125 102.5 L 353.046875 104.015625 L 354.484375 105.21875 L 356.0625 108.375 L 356 111.703125 L 354.890625 114.046875 L 352.765625 116.1875 L 349.921875 117.203125 L 345.515625 117.421875 L 341.28125 117.140625 L 313.984375 113.375 L 308.984375 113.109375 L 306.359375 113.5 L 304 114.375 L 295.6875 120.078125 L 266.796875 142.109375 L 256.59375 150.453125 L 254.796875 152.71875 L 254.109375 154.609375 L 254.1875 157.65625 L 255.6875 163.25 L 258.609375 171.96875 L 260.671875 175.96875 L 260.703125 179.515625 L 261.78125 186.796875 L 261.453125 190.5625 L 260.5 192.96875 L 257.90625 196.734375 L 256.21875 198.28125 L 252.96875 199.25 L 244.703125 199.421875 L 240.671875 198.78125 L 238.265625 197.15625 L 236.3125 194.296875 L 234.28125 188.921875 L 229.96875 170.859375 L 218.515625 178.921875 L 211.765625 182.609375 L 209.15625 183.078125 L 204.8125 182.84375 L 202.390625 182.265625 L 199.4375 180.75 L 197.1875 178.4375 L 195.984375 175.640625 L 195.890625 171.703125 L 196.9375 167.796875 L 201.25 163.515625 L 216.46875 151.921875 L 220.671875 148.265625 L 222.90625 144.90625 L 223.3125 142.890625 L 223.21875 140.546875 L 214.015625 97.203125 L 198.265625 94.515625 L 192.65625 93.125 L 191.140625 92.046875 L 188.625 88.140625 L 189.703125 85.59375 L 194.109375 81.78125 L 197.9375 80.140625 L 201.703125 79.6875 L 209.875 80.359375 L 210.125 78.71875 L 209.921875 73.765625 L 210.84375 71.6875 L 216.625 68.4375 L 221.984375 66.90625 Z"/>
            <path id="path13" fill="none" stroke="#000000" stroke-width="3" stroke-linecap="round" stroke-linejoin="round" d="M 385.192749 152.320251 C 385.399231 155.797791 383.838806 158.834412 379.867676 162.600952 C 376.731262 165.575806 322.106812 210.360596 321.532837 211.599854 C 320.95636 212.844788 315.313904 216.152832 308.960266 218.961853 C 298.449615 223.608521 296.640442 223.794342 290.571625 220.863434 C 286.922546 219.101166 278.791718 212.686096 272.642883 206.758789 C 266.677155 201.008179 256.88205 191.170593 250.902374 184.937683 C 245.11792 178.908386 161.278961 95.453674 157.68988 91.748108 C 152.89267 86.795105 151.515656 84.3974 151.865692 81.722778 C 152.120728 79.773804 153.242188 77.513611 154.416748 76.560242 C 155.563538 75.629395 207.893097 46.003967 209.822388 45.113525 C 211.745026 44.226196 214.687195 43.075684 216.364685 42.554871 C 218.040009 42.034668 221.183716 41.67804 223.359711 41.762085 C 226.390976 41.879089 363.81311 130.89856 368.029968 133.32782 C 372.31488 135.796265 377.862793 139.968628 380.328125 142.598267 C 382.830322 145.267151 385.034058 149.644958 385.192749 152.320251 Z"/>
        </g>
    </g>
</svg>
